<svg width="74" height="32" viewBox="0 0 74 32" fill="none" xmlns="http://www.w3.org/2000/svg">
    <g clip-path="url(#clip0)">
        <path fill-rule="evenodd" clip-rule="evenodd"
        d="M72.2204 20.8278L72.2155 20.8348L71.8314 21.2867C69.9948 23.2569 66.9571 24.2456 63.4098 24.0089C61.6989 23.8905 60.3651 23.5493 59.0942 22.8949C58.2283 22.4493 57.6417 21.9968 56.9155 21.2379C56.1334 20.4094 55.5817 19.4695 55.1488 18.2093C55.104 18.0791 55.1047 18.0287 55.1047 18.0287L55.0161 17.5618C54.5273 15.4174 54.8136 12.8483 55.7423 11.1286C56.3498 10.0147 57.3903 8.8868 58.4099 8.23926L58.9545 7.89814C58.9545 7.89814 58.9755 7.85632 59.0383 7.83549C60.0858 7.38294 60.407 7.26454 60.9377 7.11833C63.2003 6.51264 66.1052 6.56137 68.228 7.2437C69.6526 7.69625 70.7629 8.35069 71.6914 9.2836L72.2361 9.833L72.2155 9.85476L72.5298 10.3003C73.4791 11.658 73.9541 13.3428 73.9541 15.3619C73.9541 17.3392 73.4791 19.0102 72.5155 20.3818L72.2204 20.8278ZM67.5507 16.9839C67.7602 16.2111 67.7602 14.5332 67.5437 13.7395C67.1317 12.2147 66.2728 11.3723 64.9181 11.1774C64.2477 11.0799 63.4377 11.1913 62.893 11.4489C62.1248 11.811 61.4964 12.6673 61.2031 13.7743C61.0285 14.4288 61.0285 16.2668 61.2101 16.9421C61.7338 18.9194 63.1095 19.8594 65.0159 19.5461C66.2798 19.3441 67.1527 18.4669 67.5507 16.9839Z"
        fill="white" />
        <path fill-rule="evenodd" clip-rule="evenodd"
        d="M56.3961 20.8275L56.3908 20.8346L56.0067 21.2864C54.1702 23.2567 51.1325 24.2453 47.5852 24.0086C45.8743 23.8903 44.5405 23.5492 43.2696 22.8946C42.4036 22.4491 41.8171 21.9965 41.0909 21.2376C40.3088 20.4091 39.7571 19.4692 39.3241 18.2091C39.2794 18.0789 39.2801 18.0284 39.2801 18.0284L39.1915 17.5615C38.7027 15.4172 38.989 12.8481 39.9177 11.1284C40.5252 10.0144 41.5657 8.88655 42.5853 8.23901L43.1299 7.89789C43.1299 7.89789 43.1509 7.85615 43.2137 7.83524C44.2612 7.38269 44.5824 7.26429 45.1131 7.11808C47.3757 6.51239 50.2806 6.56113 52.4034 7.24345C53.828 7.696 54.9383 8.35044 55.867 9.28342L56.4113 9.83275L56.3908 9.85451L56.705 10.3001C57.6547 11.6577 58.1296 13.3426 58.1296 15.3617C58.1296 17.339 57.6547 19.0099 56.6911 20.3815L56.3961 20.8275ZM51.7261 16.9837C51.9356 16.2108 51.9356 14.533 51.7191 13.7392C51.3071 12.2145 50.4482 11.3721 49.0935 11.1771C48.4231 11.0797 47.613 11.191 47.0684 11.4487C46.3003 11.8107 45.6718 12.6671 45.3784 13.7741C45.2039 14.4285 45.2039 16.2666 45.3855 16.9419C45.9092 18.9192 47.2849 19.8591 49.1912 19.5458C50.4552 19.3439 51.3281 18.4666 51.7261 16.9837Z"
        fill="white" />
        <path
        d="M31.5703 31.9193C28.9843 31.678 27.5833 31.2849 26.3425 30.4506C25.8755 30.1334 25.3179 29.5611 25.0739 29.1405C24.4954 28.1613 24.5163 26.7064 25.1157 25.7755C25.2761 25.5204 25.7849 25.0032 26.1473 24.7274C26.5656 24.4033 27.9736 23.9 28.4476 23.9C28.5173 23.9 28.573 23.8724 28.573 23.831C28.573 23.7965 28.5451 23.762 28.5103 23.762C28.3361 23.762 27.7227 23.0932 27.5135 22.6725C27.3045 22.2588 27.2836 22.1485 27.2836 21.6244C27.2836 21.0935 27.3114 20.99 27.5414 20.5074C27.6809 20.2178 27.9248 19.8385 28.0782 19.6731C28.3918 19.342 28.9843 18.9973 29.4792 18.8662L29.7929 18.7766L29.3189 18.6181C28.2734 18.2663 26.9838 17.4182 26.3495 16.6666C25.5409 15.715 25.2273 14.8531 25.1785 13.4878C25.1018 11.5019 25.6246 10.1159 26.9281 8.83339C28.0085 7.77148 29.4583 7.144 31.5703 6.81992C32.2882 6.70959 32.9295 6.6958 37.7739 6.6958H43.176L43.1969 7.28878L43.2178 7.87495L42.6741 8.2128C41.6564 8.85408 40.6178 9.97116 40.0114 11.0744C39.0843 12.7776 38.7986 15.322 39.2865 17.4458L39.391 17.9285L39.2307 18.0595C38.9658 18.2732 38.0597 18.6939 37.4603 18.8869C36.7004 19.1352 36.0174 19.2593 34.9997 19.3489C33.7033 19.4593 33.3129 19.5696 32.9783 19.9212C32.7831 20.1281 32.7135 20.5212 32.825 20.7901C32.9852 21.1762 33.4035 21.2866 35.418 21.4865C37.9342 21.7348 39.2447 22.0313 40.1787 22.5691C41.7888 23.5 42.5068 24.6998 42.5138 26.4719C42.5138 28.7819 41.2312 30.4368 38.7637 31.3056C38.0876 31.5401 36.7563 31.8021 35.7525 31.8918C35.0276 31.9607 32.1697 31.9814 31.5703 31.9193ZM35.4389 28.8992C36.4914 28.6785 37.1884 28.2786 37.4533 27.7338C37.5927 27.4442 37.5996 26.734 37.4672 26.4306C37.2511 25.9272 36.8538 25.7066 35.7804 25.4928C34.8185 25.2997 33.7869 25.2514 32.7413 25.3411C31.2775 25.4721 30.4969 25.7686 30.1205 26.3271C29.9602 26.5754 29.9322 26.6788 29.9322 27.1408C29.9322 27.5959 29.9602 27.7062 30.1205 27.9476C30.6293 28.713 32.0861 29.106 34.1145 29.0301C34.5745 29.0095 35.174 28.9543 35.4389 28.8992ZM34.2399 16.2115C35.7734 15.8185 36.7354 14.5428 36.6377 13.0465C36.5959 12.35 36.3868 11.7984 36.0034 11.3295C35.641 10.8882 34.9579 10.4193 34.4421 10.2676C33.9193 10.1159 32.9852 10.109 32.4695 10.2676C31.3682 10.5918 30.455 11.6674 30.2459 12.881C30.0368 14.0601 30.7269 15.4393 31.7934 15.9771C32.4486 16.3081 33.4802 16.4046 34.2399 16.2115Z"
        fill="white" />
        <path fill-rule="evenodd" clip-rule="evenodd"
        d="M21.1677 3.27496C21.3488 4.02704 22.08 4.80696 22.8459 5.0507C23.3264 5.21086 24.3153 5.15515 24.754 4.94624C25.1997 4.73037 25.8264 4.1106 26.0423 3.65797C26.1885 3.35853 26.2164 3.21229 26.2164 2.61341C26.2164 2.00061 26.1955 1.8683 26.0284 1.52012C25.7916 1.00481 25.2484 0.461648 24.7332 0.224884C24.3849 0.0577562 24.2527 0.0368652 23.6398 0.0368652C23.0479 0.0368652 22.8947 0.0647199 22.5953 0.210957C22.1427 0.426829 21.5228 1.05356 21.314 1.49923C21.112 1.92401 21.0424 2.75269 21.1677 3.27496ZM26.7734 17.068L26.7386 12.2278V6.54589H20.6106V12.7853V19.0248V23.955H21.9824H26.7386L26.7525 20.508L26.7734 17.068Z"
        fill="white" />
        <path
        d="M16.5678 23.9663C15.5954 23.8405 14.2944 23.3163 13.548 22.7501C12.5072 21.9464 11.7951 20.9119 11.4664 19.7028C11.2472 18.8781 11.2609 16.8419 11.2609 16.8419V14.7404V12.8952V11.0431L11.2951 8.7995V6.60488L11.2746 3.30593L11.2609 0H17.3553V8.7995C17.3553 18.3819 17.3348 17.8926 17.7388 18.4308C17.8278 18.5566 18.0538 18.7453 18.2318 18.8501L18.5537 19.0458L20.3888 19.0668L22.2172 19.0878V24.0432L19.6356 24.0362C18.2113 24.0292 16.8349 24.0012 16.5678 23.9663Z"
        fill="white" />
        <path
        d="M14.6085 11.1009H11.1728L11.2149 14.7604H13.4201V18.9057L11.2149 18.9033L8.71339 18.9171L6.21881 18.9378L6.19772 24.6896L6.18367 30.4343H3.09183H0L0.0140538 21.1681L0.0351345 11.8949L0.196753 11.3425C0.758905 9.4437 1.95348 7.97987 3.54859 7.22723C4.60965 6.73008 4.60262 6.73008 8.06692 6.69556H14.6085V11.1009ZM11.1949 13.0191L11.1728 11.1009H9.47229C8.50958 11.1009 7.65227 11.1354 7.50471 11.1699C7.08312 11.2873 6.66853 11.6463 6.42962 12.102C6.22583 12.4956 6.21881 12.537 6.1907 13.6349L6.16962 14.7604H11.2149L11.1949 13.0191Z"
        fill="white" />
    </g>
    <defs>
        <clipPath id="clip0">
        <rect width="73.9556" height="32" fill="white" />
        </clipPath>
    </defs>
</svg>